nColumns=19
nRows=39
DataType=double
version=3
OpenSimVersion=4.1
endheader
time	ground_force_1_vx	ground_force_1_vy	ground_force_1_vz	ground_force_1_px	ground_force_1_py	ground_force_1_pz	ground_force_1_mx	ground_force_1_my	ground_force_1_mz	ground_force_2_vx	ground_force_2_vy	ground_force_2_vz	ground_force_2_px	ground_force_2_py	ground_force_2_pz	ground_force_2_mx	ground_force_2_my	ground_force_2_mz
0	-0.747757	179.955	25.7861	0.087876	0.006	-0.17978	0	1.29146	0	0	0	0	0.677809	0	-0.217492	0	0	0
0.01	-7.81285	209.149	26.9094	0.095016	0.006	-0.179253	0	1.01608	0	0	0	0	0.677809	0	-0.217492	0	0	0
0.02	-15.9997	242.98	27.6215	0.102998	0.006	-0.178413	0	0.729942	0	0	0	0	0.677809	0	-0.217492	0	0	0
0.03	-25.1656	281.04	27.7034	0.110455	0.006	-0.177373	0	0.438706	0	0	0	0	0.677809	0	-0.217492	0	0	0
0.04	-35.1051	322.581	26.9249	0.117387	0.006	-0.176171	0	0.147047	0	0	0	0	0.677809	0	-0.217492	0	0	0
0.05	-45.5613	366.545	25.0874	0.123834	0.006	-0.174839	0	-0.139724	0	0	0	0	0.677809	0	-0.217492	0	0	0
0.06	-56.206	411.65	22.0687	0.129839	0.006	-0.173414	0	-0.413852	0	0	0	0	0.677809	0	-0.217492	0	0	0
0.07	-66.6341	456.485	17.8633	0.135434	0.006	-0.171929	0	-0.66386	0	0	0	0	0.677809	0	-0.217492	0	0	0
0.08	-76.4031	499.613	12.6025	0.14064	0.006	-0.17042	0	-0.875432	0	0	0	0	0.677809	0	-0.217492	0	0	0
0.09	-85.095	539.721	6.53548	0.145482	0.006	-0.168917	0	-1.03541	0	0	0	0	0.677809	0	-0.217492	0	0	0
0.1	-92.3886	575.798	-0.0334751	0.149994	0.006	-0.167439	0	-1.13772	0	0	0	0	0.677809	0	-0.217492	0	0	0
0.11	-98.1145	607.23	-6.78258	0.154224	0.006	-0.166	0	-1.18382	0	0	0	0	0.677809	0	-0.217492	0	0	0
0.12	-102.229	633.781	-13.3746	0.158217	0.006	-0.164615	0	-1.17876	0	0	0	0	0.677809	0	-0.217492	0	0	0
0.13	-104.781	655.487	-19.4842	0.162011	0.006	-0.163298	0	-1.13039	0	0	0	0	0.677809	0	-0.217492	0	0	0
0.14	-105.885	672.554	-24.8451	0.165639	0.006	-0.16206	0	-1.05003	0	0	0	0	0.677809	0	-0.217492	0	0	0
0.15	-105.696	685.272	-29.2789	0.169126	0.006	-0.160909	0	-0.95053	0	0	0	0	0.677809	0	-0.217492	0	0	0
0.16	-104.38	693.954	-32.6971	0.172493	0.006	-0.159846	0	-0.843745	0	0	0	0	0.677809	0	-0.217492	0	0	0
0.17	-102.096	698.899	-35.0875	0.175756	0.006	-0.158869	0	-0.739326	0	0	0	0	0.677809	0	-0.217492	0	0	0
0.18	-98.9892	700.381	-36.497	0.17893	0.006	-0.157971	0	-0.644638	0	0	0	0	0.677809	0	-0.217492	0	0	0
0.19	-95.1973	698.678	-37.015	0.182029	0.006	-0.157143	0	-0.565172	0	0	0	0	0.677809	0	-0.217492	0	0	0
0.2	-90.8528	694.1	-36.7592	0.18507	0.006	-0.156375	0	-0.505136	0	0	0	0	0.677809	0	-0.217492	0	0	0
0.21	-86.0839	687.025	-35.8618	0.188068	0.006	-0.155658	0	-0.468094	0	0	0	0	0.677809	0	-0.217492	0	0	0
0.22	-81.0175	677.896	-34.4539	0.191037	0.006	-0.154984	0	-0.457488	0	0	0	0	0.677809	0	-0.217492	0	0	0
0.23	-75.7752	667.222	-32.6549	0.193988	0.006	-0.154351	0	-0.476629	0	0	0	0	0.677809	0	-0.217492	0	0	0
0.24	-70.4693	655.549	-30.5703	0.196931	0.006	-0.153758	0	-0.52842	0	0	0	0	0.677809	0	-0.217492	0	0	0
0.25	-65.1966	643.439	-28.2953	0.199867	0.006	-0.153209	0	-0.615057	0	0	0	0	0.677809	0	-0.217492	0	0	0
0.26	-60.0359	631.43	-25.9222	0.202793	0.006	-0.152706	0	-0.737686	0	0	0	0	0.677809	0	-0.217492	0	0	0
0.27	-55.0444	620.01	-23.5448	0.205702	0.006	-0.152252	0	-0.896212	0	0	0	0	0.677809	0	-0.217492	0	0	0
0.28	-50.2527	609.594	-21.2577	0.208581	0.006	-0.151846	0	-1.0893	0	0	0	0	0.677809	0	-0.217492	0	0	0
0.29	-45.6638	600.514	-19.1547	0.211418	0.006	-0.151485	0	-1.3146	0	0	0	0	0.677809	0	-0.217492	0	0	0
0.3	-41.2554	593.02	-17.3269	0.214201	0.006	-0.151163	0	-1.56925	0	0	0	0	0.677809	0	-0.217492	0	0	0
0.31	-36.9853	587.288	-15.859	0.216921	0.006	-0.150873	0	-1.85022	0	0	0	0	0.677809	0	-0.217492	0	0	0
0.32	-32.7975	583.435	-14.8249	0.219574	0.006	-0.150606	0	-2.15437	0	0	0	0	0.677809	0	-0.217492	0	0	0
0.33	-28.6293	581.541	-14.2835	0.222163	0.006	-0.150356	0	-2.47834	0	0	0	0	0.677809	0	-0.217492	0	0	0
0.34	-24.4179	581.659	-14.2756	0.224693	0.006	-0.150119	0	-2.81819	0	0	0	0	0.677809	0	-0.217492	0	0	0
0.35	-20.1075	583.837	-14.8229	0.22718	0.006	-0.149894	0	-3.16886	0	0	0	0	0.677809	0	-0.217492	0	0	0
0.36	-15.6563	588.121	-15.9299	0.229647	0.006	-0.149687	0	-3.52393	0	0	0	0	0.677809	0	-0.217492	0	0	0
0.37	-11.0405	594.553	-17.5852	0.232125	0.006	-0.149503	0	-3.87546	0	0	0	0	0.677809	0	-0.217492	0	0	0
0.38	-6.25359	603.161	-19.7623	0.234652	0.006	-0.149351	0	-4.21416	0	0	0	0	0.677809	0	-0.217492	0	0	0
